# Blender 5.0.0
# www.blender.org
mtllib cubes.mtl
o mesh
v 0.073249 -0.024416 0.036625
v 0.048833 -0.024416 0.036625
v 0.073249 -0.024416 0.012208
v 0.048833 -0.024416 0.012208
v 0.048833 -0.122082 0.036625
v 0.073249 -0.122082 0.036625
v 0.048833 -0.122082 0.012208
v 0.073249 -0.122082 0.012208
v -0.048833 -0.024416 0.036625
v -0.073250 -0.024416 0.036625
v -0.048833 -0.024416 0.012208
v -0.073249 -0.024416 0.012208
v -0.073249 -0.122082 0.036625
v -0.048833 -0.122082 0.036625
v -0.073249 -0.122082 0.012208
v -0.048833 -0.122082 0.012208
v 0.070582 -0.040123 0.137693
v 0.046259 -0.041624 0.136184
v 0.071397 -0.030694 0.115185
v 0.047073 -0.032194 0.113677
v 0.054123 -0.131512 0.098809
v 0.078446 -0.130012 0.100318
v 0.054937 -0.122082 0.076302
v 0.079261 -0.120582 0.077810
v -0.047980 -0.043630 0.136235
v -0.072304 -0.041502 0.136235
v -0.047166 -0.034322 0.113677
v -0.071490 -0.032194 0.113677
v -0.080168 -0.131391 0.098859
v -0.055844 -0.133519 0.098859
v -0.079354 -0.122082 0.076302
v -0.055030 -0.124211 0.076302
v 0.061041 0.048833 0.158707
v -0.061041 0.048833 0.158707
v 0.061041 0.048833 0.012208
v -0.061041 0.048833 0.012208
v -0.061041 -0.048833 0.158707
v 0.061041 -0.048833 0.158707
v -0.061041 -0.048833 0.012208
v 0.061041 -0.048833 0.012208
v 0.073249 0.073249 0.280790
v -0.073250 0.073249 0.280790
v 0.073249 0.073249 0.158707
v -0.073250 0.073249 0.158707
v -0.073250 -0.073249 0.280790
v 0.073249 -0.073249 0.280790
v -0.073250 -0.073249 0.158707
v 0.073249 -0.073249 0.158707
v 0.036625 0.134291 0.244165
v -0.036625 0.134291 0.244165
v 0.036625 0.134291 0.195332
v -0.036625 0.134291 0.195332
v -0.036625 0.073249 0.244165
v 0.036625 0.073249 0.244165
v -0.036625 0.073249 0.195332
v 0.036625 0.073249 0.195332
v -0.030919 0.024416 0.326790
v -0.042838 0.024416 0.324147
v -0.020349 0.024416 0.279114
v -0.032268 0.024416 0.276472
v -0.042838 0.012208 0.324147
v -0.030919 0.012208 0.326790
v -0.032268 0.012208 0.276472
v -0.020349 0.012208 0.279114
v -0.030919 0.012208 0.326790
v -0.042838 0.012208 0.324147
v -0.028277 0.012208 0.314871
v -0.040195 0.012208 0.312228
v -0.042838 -0.024416 0.324147
v -0.030919 -0.024416 0.326790
v -0.040195 -0.024416 0.312228
v -0.028277 -0.024416 0.314871
v 0.021746 0.012208 0.326567
v 0.009584 0.012208 0.327631
v 0.020682 0.012208 0.314405
v 0.008520 0.012208 0.315469
v 0.009584 -0.024416 0.327631
v 0.021746 -0.024416 0.326567
v 0.008520 -0.024416 0.315469
v 0.020682 -0.024416 0.314405
v 0.021746 0.024416 0.326567
v 0.009584 0.024416 0.327631
v 0.017490 0.024416 0.277920
v 0.005328 0.024416 0.278984
v 0.009584 0.012208 0.327631
v 0.021746 0.012208 0.326567
v 0.005328 0.012208 0.278984
v 0.017490 0.012208 0.277920
v 0.049514 -0.054421 0.109874
v -0.070714 -0.075620 0.109874
v 0.049514 -0.054421 0.097666
v -0.070714 -0.075620 0.097666
v -0.049514 -0.195848 0.109874
v 0.070714 -0.174649 0.109874
v -0.049514 -0.195848 0.097666
v 0.070714 -0.174649 0.097666
v 0.055489 -0.052901 0.122083
v -0.066129 -0.063542 0.122082
v 0.055489 -0.052901 0.109874
v -0.066129 -0.063542 0.109874
v -0.055489 -0.185159 0.122082
v 0.066129 -0.174519 0.122083
v -0.055489 -0.185159 0.109874
v 0.066129 -0.174519 0.109874
v 0.036087 -0.039276 0.134291
v -0.076702 -0.085995 0.134291
v 0.036087 -0.039276 0.122083
v -0.076702 -0.085995 0.122082
v -0.029983 -0.198785 0.134291
v 0.082806 -0.152066 0.134291
v -0.029983 -0.198785 0.122082
v 0.082806 -0.152066 0.122083
v 0.046462 -0.054421 0.146499
v -0.073766 -0.075620 0.146499
v 0.046462 -0.054421 0.134291
v -0.073766 -0.075620 0.134291
v -0.052566 -0.195848 0.146499
v 0.067661 -0.174649 0.146499
v -0.052566 -0.195848 0.134291
v 0.067661 -0.174649 0.134291
v 0.060594 -0.063762 0.158707
v -0.061373 -0.058437 0.158707
v 0.060594 -0.063762 0.146499
v -0.061373 -0.058437 0.146499
v -0.066698 -0.180403 0.158707
v 0.055268 -0.185728 0.158707
v -0.066698 -0.180403 0.146499
v 0.055268 -0.185728 0.146499
v 0.073249 -0.048833 0.097666
v -0.073250 -0.048833 0.097666
v 0.073249 -0.048833 0.085458
v -0.073250 -0.048833 0.085458
v -0.073250 -0.195332 0.097666
v 0.073249 -0.195332 0.097666
v -0.073250 -0.195332 0.085458
v 0.073249 -0.195332 0.085458
vn -1.0000 -0.0000 -0.0000
vn -0.0000 1.0000 -0.0000
vn 1.0000 -0.0000 -0.0000
vn -0.0000 -1.0000 -0.0000
vn -0.0000 -0.0000 1.0000
vn -0.0000 -0.0000 -1.0000
vn -0.9962 -0.0615 -0.0618
vn -0.0805 0.9204 0.3827
vn 0.9962 0.0615 0.0618
vn 0.0805 -0.9204 -0.3827
vn -0.0334 -0.3862 0.9218
vn 0.0334 0.3862 -0.9218
vn -0.9962 0.0872 -0.0000
vn 0.0805 0.9204 0.3827
vn 0.9962 -0.0872 -0.0000
vn -0.0805 -0.9204 -0.3827
vn -0.0334 -0.3812 0.9239
vn 0.0334 0.3812 -0.9239
vn -0.9763 -0.0000 -0.2164
vn 0.9763 -0.0000 0.2164
vn -0.2164 -0.0000 0.9763
vn 0.2164 -0.0000 -0.9763
vn -0.9962 -0.0000 0.0872
vn 0.9962 -0.0000 -0.0872
vn 0.0872 -0.0000 0.9962
vn -0.0872 -0.0000 -0.9962
vn -0.9848 -0.1736 -0.0000
vn -0.1736 0.9848 -0.0000
vn 0.9848 0.1736 -0.0000
vn 0.1736 -0.9848 -0.0000
vn -0.9962 -0.0872 -0.0000
vn -0.0872 0.9962 -0.0000
vn 0.9962 0.0872 -0.0000
vn 0.0872 -0.9962 -0.0000
vn -0.9239 -0.3827 -0.0000
vn -0.3827 0.9239 -0.0000
vn 0.9239 0.3827 -0.0000
vn 0.3827 -0.9239 -0.0000
vn -0.9990 0.0436 -0.0000
vn 0.0436 0.9990 -0.0000
vn 0.9990 -0.0436 -0.0000
vn -0.0436 -0.9990 -0.0000
vt 0.250000 0.523438
vt 0.187500 0.539062
vt 0.187500 0.523438
vt 0.171875 0.539062
vt 0.171875 0.523438
vt 0.328125 0.523438
vt 0.265625 0.539062
vt 0.265625 0.523438
vt 0.250000 0.539062
vt 0.187500 0.554688
vt 0.250000 0.554688
vt 0.312500 0.554688
vt 0.312500 0.539062
vt 0.406250 0.523438
vt 0.343750 0.539062
vt 0.343750 0.523438
vt 0.328125 0.539062
vt 0.484375 0.523438
vt 0.421875 0.539062
vt 0.421875 0.523438
vt 0.406250 0.539062
vt 0.343750 0.554688
vt 0.406250 0.554688
vt 0.468750 0.554688
vt 0.468750 0.539062
vt 0.187500 0.492188
vt 0.250000 0.507812
vt 0.187500 0.507812
vt 0.171875 0.492188
vt 0.171875 0.507812
vt 0.265625 0.492188
vt 0.328125 0.507812
vt 0.265625 0.507812
vt 0.250000 0.492188
vt 0.312500 0.523438
vt 0.312500 0.507812
vt 0.343750 0.492188
vt 0.406250 0.507812
vt 0.343750 0.507812
vt 0.328125 0.492188
vt 0.484375 0.492188
vt 0.421875 0.507812
vt 0.421875 0.492188
vt 0.406250 0.492188
vt 0.468750 0.507812
vt 0.468750 0.523438
vt 0.140625 0.554688
vt 0.078125 0.648438
vt 0.078125 0.554688
vt 0.000000 0.648438
vt 0.000000 0.554688
vt 0.281250 0.554688
vt 0.218750 0.648438
vt 0.218750 0.554688
vt 0.140625 0.648438
vt 0.078125 0.726562
vt 0.140625 0.726562
vt 0.203125 0.726562
vt 0.203125 0.648438
vt 0.187500 0.828125
vt 0.093750 0.906250
vt 0.093750 0.828125
vt 0.000000 0.906250
vt 0.000000 0.828125
vt 0.375000 0.828125
vt 0.281250 0.906250
vt 0.281250 0.828125
vt 0.187500 0.906250
vt 0.093750 1.000000
vt 0.187500 1.000000
vt 0.281250 1.000000
vt 0.085938 0.476562
vt 0.046875 0.507812
vt 0.046875 0.476562
vt 0.000000 0.507812
vt 0.000000 0.476562
vt 0.171875 0.476562
vt 0.132812 0.507812
vt 0.132812 0.476562
vt 0.085938 0.507812
vt 0.046875 0.554688
vt 0.085938 0.554688
vt 0.125000 0.554688
vt 0.125000 0.507812
vt 0.945312 0.960938
vt 0.937500 0.992188
vt 0.937500 0.960938
vt 0.929688 0.992188
vt 0.929688 0.960938
vt 0.960938 0.960938
vt 0.953125 0.992188
vt 0.953125 0.960938
vt 0.945312 0.992188
vt 0.937500 1.000000
vt 0.945312 1.000000
vt 0.953125 1.000000
vt 0.968750 0.984375
vt 0.945312 0.984375
vt 0.937500 0.984375
vt 1.000000 0.984375
vt 0.976562 0.992188
vt 0.976562 0.984375
vt 0.968750 0.992188
vt 0.968750 1.000000
vt 0.992188 1.000000
vt 0.992188 0.992188
vt 0.437500 0.640625
vt 0.359375 0.648438
vt 0.359375 0.640625
vt 0.281250 0.648438
vt 0.281250 0.640625
vt 0.593750 0.640625
vt 0.515625 0.648438
vt 0.515625 0.640625
vt 0.437500 0.648438
vt 0.437500 0.726562
vt 0.515625 0.726562
vt 0.437500 0.554688
vt 0.359375 0.562500
vt 0.359375 0.554688
vt 0.281250 0.562500
vt 0.593750 0.554688
vt 0.515625 0.562500
vt 0.515625 0.554688
vt 0.437500 0.562500
vt 0.531250 0.914062
vt 0.453125 0.921875
vt 0.453125 0.914062
vt 0.375000 0.921875
vt 0.375000 0.914062
vt 0.687500 0.914062
vt 0.609375 0.921875
vt 0.609375 0.914062
vt 0.531250 0.921875
vt 0.453125 1.000000
vt 0.531250 1.000000
vt 0.609375 1.000000
vt 0.531250 0.828125
vt 0.453125 0.835938
vt 0.453125 0.828125
vt 0.375000 0.835938
vt 0.687500 0.828125
vt 0.609375 0.835938
vt 0.609375 0.828125
vt 0.531250 0.835938
vt 0.531250 0.742188
vt 0.453125 0.750000
vt 0.453125 0.742188
vt 0.375000 0.750000
vt 0.375000 0.742188
vt 0.687500 0.742188
vt 0.609375 0.750000
vt 0.609375 0.742188
vt 0.531250 0.750000
vt 0.187500 0.726562
vt 0.093750 0.734375
vt 0.093750 0.726562
vt 0.000000 0.734375
vt 0.000000 0.726562
vt 0.375000 0.726562
vt 0.281250 0.734375
vt 0.281250 0.726562
vt 0.187500 0.734375
vt 0.484375 0.539062
vt 0.484375 0.507812
vt 0.375000 0.906250
vt 0.960938 0.992188
vt 1.000000 0.992188
vt 0.593750 0.648438
vt 0.359375 0.726562
vt 0.593750 0.562500
vt 0.687500 0.921875
vt 0.687500 0.835938
vt 0.687500 0.750000
vt 0.375000 0.734375
s 1
usemtl m_632d92f5-cfab-e993-36d1-3ec53c902688.001
f 7/1/1 2/2/1 4/3/1
f 4/3/2 1/4/2 3/5/2
f 3/6/3 6/7/3 8/8/3
f 8/8/4 5/9/4 7/1/4
f 1/10/5 5/9/5 6/11/5
f 4/9/6 8/12/6 7/13/6
f 15/14/1 10/15/1 12/16/1
f 12/16/2 9/17/2 11/6/2
f 11/18/3 14/19/3 16/20/3
f 16/20/4 13/21/4 15/14/4
f 9/22/5 13/21/5 14/23/5
f 12/21/6 16/24/6 15/25/6
f 20/26/7 21/27/7 18/28/7
f 19/29/8 18/28/8 17/30/8
f 24/31/9 17/32/9 22/33/9
f 24/31/10 21/27/10 23/34/10
f 17/3/11 21/27/11 22/1/11
f 20/27/12 24/35/12 23/36/12
f 28/37/13 29/38/13 26/39/13
f 28/37/14 25/32/14 27/40/14
f 27/41/15 30/42/15 32/43/15
f 32/43/16 29/38/16 31/44/16
f 25/16/17 29/38/17 30/14/17
f 31/45/18 27/14/18 32/46/18
f 39/47/1 34/48/1 36/49/1
f 36/49/2 33/50/2 35/51/2
f 35/52/3 38/53/3 40/54/3
f 40/54/4 37/55/4 39/47/4
f 33/56/5 37/55/5 38/57/5
f 36/55/6 40/58/6 39/59/6
f 47/60/1 42/61/1 44/62/1
f 44/62/2 41/63/2 43/64/2
f 43/65/3 46/66/3 48/67/3
f 48/67/4 45/68/4 47/60/4
f 41/69/5 45/68/5 46/70/5
f 44/68/6 48/71/6 47/66/6
f 55/72/1 50/73/1 52/74/1
f 52/74/2 49/75/2 51/76/2
f 51/77/3 54/78/3 56/79/3
f 56/79/4 53/80/4 55/72/4
f 49/81/5 53/80/5 54/82/5
f 52/80/6 56/83/6 55/84/6
f 63/85/19 58/86/19 60/87/19
f 60/87/2 57/88/2 59/89/2
f 59/90/20 62/91/20 64/92/20
f 63/85/4 62/91/4 61/93/4
f 57/94/21 61/93/21 62/95/21
f 60/93/22 64/96/22 63/91/22
f 71/97/19 66/93/19 68/98/19
f 68/98/2 65/86/2 67/99/2
f 67/100/20 70/101/20 72/102/20
f 71/97/4 70/101/4 69/103/4
f 65/95/21 69/103/21 70/104/21
f 68/103/22 72/105/22 71/106/22
f 79/97/23 74/93/23 76/98/23
f 76/98/2 73/86/2 75/99/2
f 75/100/24 78/101/24 80/102/24
f 79/97/4 78/101/4 77/103/4
f 73/95/25 77/103/25 78/104/25
f 76/103/26 80/105/26 79/106/26
f 87/85/23 82/86/23 84/87/23
f 84/87/2 81/88/2 83/89/2
f 83/90/24 86/91/24 88/92/24
f 87/85/4 86/91/4 85/93/4
f 81/94/25 85/93/25 86/95/25
f 84/93/26 88/96/26 87/91/26
f 95/107/27 90/108/27 92/109/27
f 92/109/28 89/110/28 91/111/28
f 91/112/29 94/113/29 96/114/29
f 96/114/30 93/115/30 95/107/30
f 94/116/5 90/108/5 93/115/5
f 92/115/6 96/117/6 95/113/6
f 103/118/31 98/119/31 100/120/31
f 100/120/32 97/121/32 99/52/32
f 99/122/33 102/123/33 104/124/33
f 104/124/34 101/125/34 103/118/34
f 97/109/5 101/125/5 102/107/5
f 103/123/6 99/107/6 104/114/6
f 111/126/35 106/127/35 108/128/35
f 108/128/36 105/129/36 107/130/36
f 107/131/37 110/132/37 112/133/37
f 112/133/38 109/134/38 111/126/38
f 105/135/5 109/134/5 110/136/5
f 111/132/6 107/136/6 112/137/6
f 119/138/27 114/139/27 116/140/27
f 116/140/28 113/141/28 115/65/28
f 115/142/29 118/143/29 120/144/29
f 120/144/30 117/145/30 119/138/30
f 118/126/5 114/139/5 117/145/5
f 116/145/6 120/133/6 119/143/6
f 127/146/39 122/147/39 124/148/39
f 124/148/40 121/149/40 123/150/40
f 123/151/41 126/152/41 128/153/41
f 128/153/42 125/154/42 127/146/42
f 126/138/5 122/147/5 125/154/5
f 124/154/6 128/144/6 127/152/6
f 135/155/1 130/156/1 132/157/1
f 132/157/2 129/158/2 131/159/2
f 131/160/3 134/161/3 136/162/3
f 136/162/4 133/163/4 135/155/4
f 129/62/5 133/163/5 134/60/5
f 132/163/6 136/67/6 135/161/6
f 7/1/1 5/9/1 2/2/1
f 4/3/2 2/2/2 1/4/2
f 3/6/3 1/17/3 6/7/3
f 8/8/4 6/7/4 5/9/4
f 1/10/5 2/2/5 5/9/5
f 4/9/6 3/11/6 8/12/6
f 15/14/1 13/21/1 10/15/1
f 12/16/2 10/15/2 9/17/2
f 11/18/3 9/164/3 14/19/3
f 16/20/4 14/19/4 13/21/4
f 9/22/5 10/15/5 13/21/5
f 12/21/6 11/23/6 16/24/6
f 20/26/7 23/34/7 21/27/7
f 19/29/8 20/26/8 18/28/8
f 24/31/9 19/40/9 17/32/9
f 24/31/10 22/33/10 21/27/10
f 17/3/11 18/28/11 21/27/11
f 20/27/12 19/1/12 24/35/12
f 28/37/13 31/44/13 29/38/13
f 28/37/14 26/39/14 25/32/14
f 27/41/15 25/165/15 30/42/15
f 32/43/16 30/42/16 29/38/16
f 25/16/17 26/39/17 29/38/17
f 31/45/18 28/38/18 27/14/18
f 39/47/1 37/55/1 34/48/1
f 36/49/2 34/48/2 33/50/2
f 35/52/3 33/110/3 38/53/3
f 40/54/4 38/53/4 37/55/4
f 33/56/5 34/48/5 37/55/5
f 36/55/6 35/57/6 40/58/6
f 47/60/1 45/68/1 42/61/1
f 44/62/2 42/61/2 41/63/2
f 43/65/3 41/166/3 46/66/3
f 48/67/4 46/66/4 45/68/4
f 41/69/5 42/61/5 45/68/5
f 44/68/6 43/70/6 48/71/6
f 55/72/1 53/80/1 50/73/1
f 52/74/2 50/73/2 49/75/2
f 51/77/3 49/30/3 54/78/3
f 56/79/4 54/78/4 53/80/4
f 49/81/5 50/73/5 53/80/5
f 52/80/6 51/82/6 56/83/6
f 63/85/19 61/93/19 58/86/19
f 60/87/2 58/86/2 57/88/2
f 59/90/20 57/167/20 62/91/20
f 63/85/4 64/92/4 62/91/4
f 57/94/21 58/86/21 61/93/21
f 60/93/22 59/95/22 64/96/22
f 71/97/19 69/103/19 66/93/19
f 68/98/2 66/93/2 65/86/2
f 67/100/20 65/168/20 70/101/20
f 71/97/4 72/102/4 70/101/4
f 65/95/21 66/93/21 69/103/21
f 68/103/22 67/104/22 72/105/22
f 79/97/23 77/103/23 74/93/23
f 76/98/2 74/93/2 73/86/2
f 75/100/24 73/168/24 78/101/24
f 79/97/4 80/102/4 78/101/4
f 73/95/25 74/93/25 77/103/25
f 76/103/26 75/104/26 80/105/26
f 87/85/23 85/93/23 82/86/23
f 84/87/2 82/86/2 81/88/2
f 83/90/24 81/167/24 86/91/24
f 87/85/4 88/92/4 86/91/4
f 81/94/25 82/86/25 85/93/25
f 84/93/26 83/95/26 88/96/26
f 95/107/27 93/115/27 90/108/27
f 92/109/28 90/108/28 89/110/28
f 91/112/29 89/169/29 94/113/29
f 96/114/30 94/113/30 93/115/30
f 94/116/5 89/170/5 90/108/5
f 92/115/6 91/116/6 96/117/6
f 103/118/31 101/125/31 98/119/31
f 100/120/32 98/119/32 97/121/32
f 99/122/33 97/171/33 102/123/33
f 104/124/34 102/123/34 101/125/34
f 97/109/5 98/119/5 101/125/5
f 103/123/6 100/125/6 99/107/6
f 111/126/35 109/134/35 106/127/35
f 108/128/36 106/127/36 105/129/36
f 107/131/37 105/172/37 110/132/37
f 112/133/38 110/132/38 109/134/38
f 105/135/5 106/127/5 109/134/5
f 111/132/6 108/134/6 107/136/6
f 119/138/27 117/145/27 114/139/27
f 116/140/28 114/139/28 113/141/28
f 115/142/29 113/173/29 118/143/29
f 120/144/30 118/143/30 117/145/30
f 118/126/5 113/128/5 114/139/5
f 116/145/6 115/126/6 120/133/6
f 127/146/39 125/154/39 122/147/39
f 124/148/40 122/147/40 121/149/40
f 123/151/41 121/174/41 126/152/41
f 128/153/42 126/152/42 125/154/42
f 126/138/5 121/140/5 122/147/5
f 124/154/6 123/138/6 128/144/6
f 135/155/1 133/163/1 130/156/1
f 132/157/2 130/156/2 129/158/2
f 131/160/3 129/175/3 134/161/3
f 136/162/4 134/161/4 133/163/4
f 129/62/5 130/156/5 133/163/5
f 132/163/6 131/60/6 136/67/6
